<?xml version="1.0" standalone="no"?>
<!DOCTYPE svg PUBLIC "-//W3C//DTD SVG 20010904//EN"
 "http://www.w3.org/TR/2001/REC-SVG-20010904/DTD/svg10.dtd">
<svg version="1.0" xmlns="http://www.w3.org/2000/svg"
 width="649.000000pt" height="649.000000pt" viewBox="0 0 649.000000 649.000000"
 preserveAspectRatio="xMidYMid meet">
<metadata>
Created by potrace 1.14, written by Peter Selinger 2001-2017
</metadata>
<g transform="translate(0.000000,649.000000) scale(0.100000,-0.100000)"
fill="#000000" stroke="none">
<path d="M2642 5116 c-82 -16 -219 -78 -294 -133 -66 -48 -158 -159 -203 -244
-40 -77 -75 -200 -75 -267 0 -37 -5 -48 -31 -71 -86 -72 -166 -151 -202 -201
-138 -185 -166 -468 -69 -697 45 -108 117 -195 271 -324 25 -21 31 -34 31 -65
0 -66 28 -175 64 -249 170 -357 587 -510 948 -348 l58 26 58 -26 c407 -183
883 42 993 471 10 41 19 95 19 120 0 37 5 48 31 71 171 144 249 246 295 387
26 80 29 102 29 224 0 122 -3 144 -29 224 -46 141 -124 243 -295 387 -26 23
-31 34 -31 71 0 121 -69 286 -170 406 -204 242 -548 317 -842 185 l-58 -26
-58 26 c-131 59 -301 79 -440 53z"/>
<path d="M827 2002 c-22 -25 -21 -75 1 -95 25 -22 75 -21 95 1 22 25 21 75 -1
95 -25 22 -75 21 -95 -1z"/>
<path d="M4997 2002 c-22 -25 -21 -75 1 -95 25 -22 75 -21 95 1 22 25 21 75
-1 95 -25 22 -75 21 -95 -1z"/>
<path d="M2160 1900 l0 -90 -32 20 c-71 43 -168 19 -222 -53 -33 -44 -35 -168
-4 -221 37 -64 69 -81 148 -81 53 0 73 4 89 19 21 19 21 19 21 -2 0 -20 5 -22
65 -22 l65 0 0 260 0 260 -65 0 -65 0 0 -90z m-30 -170 c38 -38 38 -102 0
-140 -47 -47 -120 -4 -120 70 0 74 73 117 120 70z"/>
<path d="M350 1910 l0 -50 75 0 75 0 0 -195 0 -195 55 0 55 0 0 195 0 195 80
0 80 0 0 50 0 50 -210 0 -210 0 0 -50z"/>
<path d="M820 1660 l0 -190 55 0 55 0 0 190 0 190 -55 0 -55 0 0 -190z"/>
<path d="M1105 1834 c-44 -22 -76 -55 -91 -91 -17 -39 -18 -121 -3 -160 14
-38 57 -83 96 -99 70 -30 202 -8 242 40 13 15 11 21 -17 49 l-31 31 -36 -17
c-51 -24 -82 -21 -113 11 l-27 27 133 3 132 3 0 27 c0 76 -46 153 -107 178
-44 19 -141 18 -178 -2z m133 -90 c42 -29 28 -44 -43 -44 -36 0 -65 3 -65 8 1
21 42 51 70 52 9 0 26 -7 38 -16z"/>
<path d="M1440 1660 l0 -190 65 0 65 0 0 100 c0 69 5 110 15 129 23 45 62 54
95 21 18 -18 20 -33 20 -135 l0 -115 65 0 65 0 0 144 c0 132 -2 146 -23 177
-12 18 -34 39 -47 46 -38 19 -110 16 -148 -7 -40 -25 -42 -25 -42 0 0 18 -7
20 -65 20 l-65 0 0 -190z"/>
<path d="M2423 1829 l-53 -20 15 -37 c9 -20 17 -38 19 -40 2 -2 32 3 66 10 52
10 65 10 87 -2 51 -29 40 -40 -42 -40 -116 0 -165 -34 -165 -117 0 -33 7 -50
29 -75 24 -27 36 -32 88 -36 43 -3 69 0 91 12 28 15 32 15 32 1 0 -12 13 -15
65 -15 l65 0 0 130 c0 156 -12 196 -69 228 -51 29 -154 29 -228 1z m167 -216
c-1 -58 -99 -84 -116 -31 -9 30 19 48 73 48 34 0 43 -4 43 -17z"/>
<path d="M3001 1832 c-57 -28 -75 -63 -79 -145 -2 -60 1 -78 20 -111 41 -69
138 -97 208 -61 29 15 30 15 30 -9 0 -32 -44 -66 -84 -66 -17 1 -49 7 -71 15
-22 8 -43 15 -46 15 -10 0 -42 -78 -35 -88 12 -19 100 -42 161 -42 82 0 153
34 183 89 21 36 22 52 22 230 l0 191 -65 0 c-51 0 -65 -3 -65 -15 0 -19 -9
-19 -34 0 -27 20 -103 19 -145 -3z m158 -108 c12 -15 21 -40 21 -56 0 -34 -39
-78 -70 -78 -32 0 -70 44 -70 80 0 38 39 80 74 80 15 0 33 -11 45 -26z"/>
<path d="M3465 1831 c-48 -22 -69 -44 -90 -94 -31 -75 -8 -179 49 -225 65 -51
194 -57 260 -12 20 14 36 30 36 36 0 5 -13 23 -29 39 l-30 28 -37 -18 c-46
-22 -99 -12 -122 23 l-14 22 132 0 132 0 -4 54 c-9 103 -80 166 -189 166 -31
0 -71 -8 -94 -19z m133 -87 c42 -29 28 -44 -43 -44 -36 0 -65 4 -65 9 0 14 50
51 69 51 9 0 27 -7 39 -16z"/>
<path d="M3810 1660 l0 -190 65 0 64 0 3 116 c3 115 3 117 31 138 26 19 30 19
55 5 27 -15 27 -16 30 -137 l3 -122 64 0 65 0 0 151 0 151 -39 39 c-35 36 -43
39 -92 39 -36 0 -65 -7 -86 -20 -33 -20 -33 -20 -33 0 0 18 -7 20 -65 20 l-65
0 0 -190z"/>
<path d="M4345 1831 c-48 -22 -69 -44 -90 -94 -31 -75 -8 -179 49 -225 68 -53
194 -57 266 -7 l41 29 -35 34 -34 35 -38 -18 c-46 -22 -99 -12 -122 23 l-14
22 132 0 132 0 -4 54 c-9 103 -80 166 -189 166 -31 0 -71 -8 -94 -19z m133
-87 c42 -29 28 -44 -43 -44 -36 0 -65 4 -65 9 0 14 50 51 69 51 9 0 27 -7 39
-16z"/>
<path d="M4689 1846 c-2 -2 -3 -88 -1 -190 l3 -186 64 0 65 0 0 110 c0 126 9
145 80 156 l40 7 0 53 c0 52 -1 54 -27 54 -16 0 -43 -9 -60 -20 -33 -20 -33
-20 -33 0 0 18 -7 20 -63 20 -35 0 -66 -2 -68 -4z"/>
<path d="M4980 1660 l0 -190 65 0 65 0 0 190 0 190 -65 0 -65 0 0 -190z"/>
<path d="M5275 1836 c-37 -17 -80 -62 -94 -99 -6 -16 -11 -50 -11 -77 0 -27 5
-61 11 -77 14 -38 57 -83 96 -99 38 -17 130 -18 170 -3 32 12 83 57 83 74 0 6
-20 21 -44 34 l-43 24 -22 -22 c-48 -48 -121 -6 -121 69 0 30 6 47 25 65 29
30 50 31 91 6 31 -19 31 -19 73 6 22 13 41 28 41 32 0 12 -42 47 -77 65 -39
19 -136 21 -178 2z"/>
<path d="M5640 1834 c-61 -21 -64 -26 -46 -69 15 -35 18 -37 49 -30 98 21 147
14 147 -20 0 -12 -15 -15 -71 -15 -89 0 -136 -20 -156 -68 -23 -56 2 -127 53
-150 35 -16 113 -15 147 2 23 13 27 13 27 0 0 -11 14 -14 60 -14 l60 0 0 153
c0 170 -5 188 -66 213 -44 18 -147 17 -204 -2z m148 -231 c-7 -59 -108 -67
-108 -9 0 29 10 34 68 35 41 1 43 0 40 -26z"/>
</g>
</svg>
